<svg width="62" height="62" viewBox="0 0 74 74" fill="none" xmlns="http://www.w3.org/2000/svg">
<path d="M36.4385 19.7135L32.8449 1M42.877 14.7533L45.1979 5.35897M42.877 61.725L47.8182 86M36.4385 69.1653L34.8663 79.3112M57.7005 32.1677L72 24.6737M18.1711 32.1677L2 21.9682M11.1337 35.9469H3.49733M21.7647 54.6605L7.91444 66.3095M59.2727 50.935L70.2781 56.5447M38.555 32.1677L50.1329 21.9682L46.6798 37.8795L60.6952 41.8573L46.6798 45.8352L50.1329 56.5447L39.6722 50.935L29.5161 64.8064L30.7349 48.2831L11.1337 44.8152L27.754 37.8795L24.5397 22.7841L38.555 32.1677Z" stroke="#D3D3D3" stroke-width="5" opacity="0.8"/>
</svg>
